<svg id="visual" viewBox="0 0 2000 1000" width="2000" height="1000" xmlns="http://www.w3.org/2000/svg" xmlns:xlink="http://www.w3.org/1999/xlink" version="1.1"><g stroke-width="1" stroke-linejoin="bevel"><path d="M964.9 636L1145.1 845L1162.1 659Z" fill="#1a528b" stroke="#1a528b"></path><path d="M964.9 636L952.9 889L1145.1 845Z" fill="#1d5896" stroke="#1d5896"></path><path d="M952.9 889L1188.1 1000L1145.1 845Z" fill="#1d5896" stroke="#1d5896"></path><path d="M1145.1 845L1375.3 793L1162.1 659Z" fill="#1f5ea0" stroke="#1f5ea0"></path><path d="M1257.3 1000L1375.3 793L1145.1 845Z" fill="#0f2f50" stroke="#0f2f50"></path><path d="M1188.1 1000L1257.3 1000L1145.1 845Z" fill="#2264ab" stroke="#2264ab"></path><path d="M705.7 784L821.9 1000L952.9 889Z" fill="#1f5ea0" stroke="#1f5ea0"></path><path d="M952.9 889L821.9 1000L1188.1 1000Z" fill="#14406d" stroke="#14406d"></path><path d="M964.9 636L705.7 784L952.9 889Z" fill="#11355a" stroke="#11355a"></path><path d="M811.9 353L705.7 604L964.9 636Z" fill="#1d5896" stroke="#1d5896"></path><path d="M964.9 636L705.7 604L705.7 784Z" fill="#2264ab" stroke="#2264ab"></path><path d="M705.7 784L741.7 1000L821.9 1000Z" fill="#123b63" stroke="#123b63"></path><path d="M1375.3 793L1410.3 541L1162.1 659Z" fill="#0f2f50" stroke="#0f2f50"></path><path d="M1162.1 659L1101.1 313L964.9 636Z" fill="#1f5ea0" stroke="#1f5ea0"></path><path d="M1410.3 541L1246.3 373L1162.1 659Z" fill="#1a528b" stroke="#1a528b"></path><path d="M1246.3 373L1101.1 313L1162.1 659Z" fill="#14406d" stroke="#14406d"></path><path d="M1101.1 313L811.9 353L964.9 636Z" fill="#0f2f50" stroke="#0f2f50"></path><path d="M1539.6 1000L1578.6 835L1375.3 793Z" fill="#2264ab" stroke="#2264ab"></path><path d="M1375.3 793L1627.6 592L1410.3 541Z" fill="#2264ab" stroke="#2264ab"></path><path d="M1257.3 1000L1539.6 1000L1375.3 793Z" fill="#1a528b" stroke="#1a528b"></path><path d="M1246.3 373L1296.3 232L1101.1 313Z" fill="#123b63" stroke="#123b63"></path><path d="M1101.1 313L811.9 119L811.9 353Z" fill="#164677" stroke="#164677"></path><path d="M1531.6 333L1296.3 232L1246.3 373Z" fill="#0f2f50" stroke="#0f2f50"></path><path d="M1531.6 333L1246.3 373L1410.3 541Z" fill="#0f2f50" stroke="#0f2f50"></path><path d="M1578.6 835L1627.6 592L1375.3 793Z" fill="#123b63" stroke="#123b63"></path><path d="M705.7 604L474.4 887L705.7 784Z" fill="#184c81" stroke="#184c81"></path><path d="M705.7 784L474.4 887L741.7 1000Z" fill="#1a528b" stroke="#1a528b"></path><path d="M422.4 513L474.4 887L705.7 604Z" fill="#0f2f50" stroke="#0f2f50"></path><path d="M658.7 218L605.7 336L811.9 353Z" fill="#164677" stroke="#164677"></path><path d="M811.9 353L605.7 336L705.7 604Z" fill="#123b63" stroke="#123b63"></path><path d="M1627.6 592L1531.6 333L1410.3 541Z" fill="#11355a" stroke="#11355a"></path><path d="M605.7 336L514.4 398L705.7 604Z" fill="#14406d" stroke="#14406d"></path><path d="M1332.3 0L1186.1 116L1296.3 232Z" fill="#0f2f50" stroke="#0f2f50"></path><path d="M1296.3 232L1186.1 116L1101.1 313Z" fill="#1d5896" stroke="#1d5896"></path><path d="M151.2 1000L457.4 1000L474.4 887Z" fill="#1d5896" stroke="#1d5896"></path><path d="M474.4 887L457.4 1000L741.7 1000Z" fill="#1a528b" stroke="#1a528b"></path><path d="M811.9 119L658.7 218L811.9 353Z" fill="#11355a" stroke="#11355a"></path><path d="M605.7 336L498.4 268L514.4 398Z" fill="#1d5896" stroke="#1d5896"></path><path d="M909.9 0L811.9 119L1101.1 313Z" fill="#1f5ea0" stroke="#1f5ea0"></path><path d="M514.4 398L422.4 513L705.7 604Z" fill="#164677" stroke="#164677"></path><path d="M658.7 218L498.4 268L605.7 336Z" fill="#0e2a47" stroke="#0e2a47"></path><path d="M514.4 398L221.2 343L422.4 513Z" fill="#1d5896" stroke="#1d5896"></path><path d="M492.4 0L498.4 268L658.7 218Z" fill="#123b63" stroke="#123b63"></path><path d="M1539.6 1000L1745.8 1000L1578.6 835Z" fill="#1f5ea0" stroke="#1f5ea0"></path><path d="M1864.8 783L1833.8 560L1627.6 592Z" fill="#123b63" stroke="#123b63"></path><path d="M1332.3 0L1101.1 0L1186.1 116Z" fill="#14406d" stroke="#14406d"></path><path d="M1186.1 116L1101.1 0L1101.1 313Z" fill="#164677" stroke="#164677"></path><path d="M1531.6 333L1531.6 159L1296.3 232Z" fill="#123b63" stroke="#123b63"></path><path d="M1714.8 191L1531.6 159L1531.6 333Z" fill="#14406d" stroke="#14406d"></path><path d="M1786.8 312L1531.6 333L1627.6 592Z" fill="#0e2a47" stroke="#0e2a47"></path><path d="M168.2 667L296.2 736L422.4 513Z" fill="#11355a" stroke="#11355a"></path><path d="M422.4 513L296.2 736L474.4 887Z" fill="#1a528b" stroke="#1a528b"></path><path d="M1101.1 0L909.9 0L1101.1 313Z" fill="#0e2a47" stroke="#0e2a47"></path><path d="M811.9 119L621.7 0L658.7 218Z" fill="#14406d" stroke="#14406d"></path><path d="M1531.6 159L1332.3 0L1296.3 232Z" fill="#123b63" stroke="#123b63"></path><path d="M1864.8 783L1627.6 592L1578.6 835Z" fill="#1a528b" stroke="#1a528b"></path><path d="M1745.8 1000L1864.8 783L1578.6 835Z" fill="#11355a" stroke="#11355a"></path><path d="M1833.8 560L1786.8 312L1627.6 592Z" fill="#2264ab" stroke="#2264ab"></path><path d="M1531.6 159L1521.6 0L1332.3 0Z" fill="#0e2a47" stroke="#0e2a47"></path><path d="M909.9 0L621.7 0L811.9 119Z" fill="#1d5896" stroke="#1d5896"></path><path d="M1786.8 312L1714.8 191L1531.6 333Z" fill="#14406d" stroke="#14406d"></path><path d="M1714.8 191L1521.6 0L1531.6 159Z" fill="#11355a" stroke="#11355a"></path><path d="M275.2 252L514.4 398L498.4 268Z" fill="#1d5896" stroke="#1d5896"></path><path d="M221.2 343L168.2 667L422.4 513Z" fill="#1a528b" stroke="#1a528b"></path><path d="M296.2 736L151.2 1000L474.4 887Z" fill="#1a528b" stroke="#1a528b"></path><path d="M492.4 0L275.2 252L498.4 268Z" fill="#1a528b" stroke="#1a528b"></path><path d="M275.2 252L221.2 343L514.4 398Z" fill="#123b63" stroke="#123b63"></path><path d="M621.7 0L492.4 0L658.7 218Z" fill="#0f2f50" stroke="#0f2f50"></path><path d="M168.2 667L151.2 1000L296.2 736Z" fill="#164677" stroke="#164677"></path><path d="M2000 1000L2000 828L1864.8 783Z" fill="#1d5896" stroke="#1d5896"></path><path d="M1864.8 783L2000 599L1833.8 560Z" fill="#2264ab" stroke="#2264ab"></path><path d="M1833.8 560L2000 358L1786.8 312Z" fill="#0f2f50" stroke="#0f2f50"></path><path d="M2000 245L1768.8 0L1714.8 191Z" fill="#14406d" stroke="#14406d"></path><path d="M2000 828L2000 599L1864.8 783Z" fill="#2264ab" stroke="#2264ab"></path><path d="M1745.8 1000L2000 1000L1864.8 783Z" fill="#0e2a47" stroke="#0e2a47"></path><path d="M2000 599L2000 358L1833.8 560Z" fill="#0f2f50" stroke="#0f2f50"></path><path d="M1714.8 191L1768.8 0L1521.6 0Z" fill="#11355a" stroke="#11355a"></path><path d="M2000 245L1714.8 191L1786.8 312Z" fill="#1a528b" stroke="#1a528b"></path><path d="M0 556L0 727L168.2 667Z" fill="#164677" stroke="#164677"></path><path d="M168.2 667L0 727L151.2 1000Z" fill="#0f2f50" stroke="#0f2f50"></path><path d="M0 446L168.2 667L221.2 343Z" fill="#0f2f50" stroke="#0f2f50"></path><path d="M0 446L0 556L168.2 667Z" fill="#1a528b" stroke="#1a528b"></path><path d="M0 446L221.2 343L0 232Z" fill="#184c81" stroke="#184c81"></path><path d="M2000 358L2000 245L1786.8 312Z" fill="#123b63" stroke="#123b63"></path><path d="M0 727L0 1000L151.2 1000Z" fill="#184c81" stroke="#184c81"></path><path d="M0 232L221.2 343L275.2 252Z" fill="#0f2f50" stroke="#0f2f50"></path><path d="M138.2 0L0 232L275.2 252Z" fill="#11355a" stroke="#11355a"></path><path d="M492.4 0L138.2 0L275.2 252Z" fill="#14406d" stroke="#14406d"></path><path d="M2000 245L2000 0L1768.8 0Z" fill="#164677" stroke="#164677"></path><path d="M138.2 0L0 0L0 232Z" fill="#184c81" stroke="#184c81"></path></g></svg>